<?xml version="1.0" standalone="no"?>
<!DOCTYPE svg PUBLIC "-//W3C//DTD SVG 20010904//EN"
 "http://www.w3.org/TR/2001/REC-SVG-20010904/DTD/svg10.dtd">
<svg version="1.0" xmlns="http://www.w3.org/2000/svg"
 width="40pt" height="40pt" viewBox="0 0 1280.000000 1037.000000"
 preserveAspectRatio="xMidYMid meet">
<metadata>
Created by potrace 1.15, written by Peter Selinger 2001-2017
</metadata>
<g transform="translate(0.000000,1037.000000) scale(0.100000,-0.100000)"
fill="#000000" stroke="none">
<path d="M6117 10360 c-194 -19 -524 -86 -587 -120 -27 -15 -140 -190 -182
-285 -45 -100 -73 -192 -92 -298 -22 -123 -26 -173 -37 -522 -10 -334 -23
-462 -49 -476 -8 -4 -52 -24 -98 -43 -212 -88 -333 -202 -567 -530 l-93 -131
-108 -39 c-346 -123 -562 -263 -663 -430 -70 -117 -124 -297 -157 -530 -10
-70 -23 -130 -29 -131 -305 -81 -523 -202 -700 -386 -156 -163 -265 -329 -445
-678 l-115 -225 -67 -22 c-158 -53 -299 -146 -391 -261 -51 -63 -187 -278
-187 -295 0 -4 -42 -5 -93 -2 -254 17 -464 -83 -602 -286 -81 -120 -166 -340
-231 -597 l-29 -113 -87 -51 c-374 -221 -553 -542 -497 -889 31 -197 156 -434
315 -600 l43 -45 -14 -235 c-55 -922 -56 -929 -39 -994 159 -624 635 -1179
981 -1143 185 19 278 222 244 531 -12 112 -47 286 -75 376 -108 341 -120 371
-251 640 -157 320 -181 392 -172 530 4 82 28 164 58 208 14 20 17 19 109 -40
158 -99 234 -132 316 -136 70 -4 72 -3 111 32 22 19 48 53 57 74 11 25 29 44
49 53 l32 14 0 115 c1 63 9 176 18 250 9 74 17 159 17 188 0 28 4 52 10 52 5
0 53 -11 105 -25 53 -13 135 -30 184 -36 155 -20 287 16 368 101 l41 42 998
113 c550 62 1016 114 1036 116 l37 3 4 -399 c3 -396 3 -401 30 -498 44 -166
101 -243 185 -254 160 -21 382 219 535 578 l44 104 -23 255 c-30 326 -31 298
9 305 17 3 786 91 1707 195 921 104 1692 192 1712 196 36 5 37 5 63 -46 35
-69 104 -136 173 -168 73 -35 165 -35 270 -2 127 40 213 121 257 242 l23 62
723 82 c398 45 1084 123 1524 173 440 50 803 91 807 91 14 0 117 145 142 200
14 30 26 69 26 85 0 47 -44 101 -102 126 -28 11 -31 18 -43 76 -6 28 -3 34 27
54 l34 22 3 107 2 108 -101 171 c-1377 2339 -3004 4071 -4550 4845 -494 247
-906 377 -1380 436 -115 15 -465 21 -573 10z m143 -336 c-8 -1 -73 -4 -145 -6
-71 -3 -116 -1 -100 3 17 4 82 7 145 7 63 0 108 -2 100 -4z m63 -11 c-7 -2
-21 -2 -30 0 -10 3 -4 5 12 5 17 0 24 -2 18 -5z m-383 -19 c-56 -17 -64 -17
-25 1 17 8 39 14 50 14 11 0 0 -7 -25 -15z m448 9 c-10 -2 -26 -2 -35 0 -10 3
-2 5 17 5 19 0 27 -2 18 -5z m49 -9 c-3 -3 -12 -4 -19 -1 -8 3 -5 6 6 6 11 1
17 -2 13 -5z m154 -30 c101 -22 141 -35 113 -34 -21 1 -258 58 -243 59 9 1 67
-11 130 -25z m-750 -9 c-71 -41 -116 -81 -156 -140 -21 -30 -40 -55 -42 -55
-8 0 33 63 65 100 33 39 145 120 166 120 6 0 -9 -11 -33 -25z m949 -39 c25 -8
38 -15 30 -15 -8 0 -35 6 -60 13 -25 8 -38 15 -30 15 8 0 35 -6 60 -13z m107
-32 c-3 -3 -12 -4 -19 -1 -8 3 -5 6 6 6 11 1 17 -2 13 -5z m103 -29 c19 -7 28
-13 20 -13 -8 0 -31 6 -50 13 -19 7 -28 13 -20 13 8 0 31 -6 50 -13z m158 -52
c40 -14 71 -27 69 -29 -4 -5 -179 55 -187 63 -6 7 27 -3 118 -34z m162 -59
c23 -9 39 -18 37 -20 -2 -3 -24 4 -48 15 -54 24 -45 27 11 5z m80 -34 c8 -5
11 -10 5 -10 -5 0 -17 5 -25 10 -8 5 -10 10 -5 10 6 0 17 -5 25 -10z m50 -20
c8 -5 11 -10 5 -10 -5 0 -17 5 -25 10 -8 5 -10 10 -5 10 6 0 17 -5 25 -10z
m-1849 -27 c-12 -20 -14 -14 -5 12 4 9 9 14 11 11 3 -2 0 -13 -6 -23z m1967
-23 c40 -18 71 -35 69 -37 -2 -2 -42 15 -88 37 -98 47 -87 47 19 0z m-1991
-97 c-2 -16 -4 -5 -4 22 0 28 2 40 4 28 2 -13 2 -35 0 -50z m2292 -49 c113
-58 211 -110 216 -115 8 -9 -421 207 -434 218 -23 18 45 -14 218 -103z m-2302
-331 c-1 -65 -3 -14 -3 112 0 127 2 180 3 118 2 -62 2 -165 0 -230z m2686 120
c59 -35 107 -66 107 -70 0 -3 -10 1 -22 9 -13 8 -71 43 -130 78 -60 34 -108
64 -108 66 0 6 26 -8 153 -83z m172 -108 l20 -16 -20 10 c-11 5 -29 17 -40 26
l-20 16 20 -10 c11 -5 29 -17 40 -26z m205 -133 c985 -666 2020 -1685 3131
-3082 157 -197 449 -575 462 -597 9 -14 -18 -84 -36 -95 -7 -4 -19 -7 -27 -7
-8 0 -5 4 8 9 25 11 57 74 45 93 -15 26 -317 414 -487 627 -1117 1398 -2120
2383 -3101 3045 -88 60 -164 113 -170 118 -18 18 18 -5 175 -111z m-2115 -41
c-16 -39 -30 -69 -32 -67 -2 2 9 35 24 74 15 39 29 69 31 67 2 -2 -8 -36 -23
-74z m79 43 c3 -8 2 -12 -4 -9 -6 3 -10 10 -10 16 0 14 7 11 14 -7z m-186
-294 c10 25 22 55 26 68 5 13 10 21 12 19 4 -3 -42 -131 -51 -145 -2 -3 -181
181 -266 274 -35 39 9 -4 98 -95 l161 -166 20 45z m-851 173 c-2 -21 -4 -6 -4
32 0 39 2 55 4 38 2 -18 2 -50 0 -70z m1057 81 c3 -8 2 -12 -4 -9 -6 3 -10 10
-10 16 0 14 7 11 14 -7z m20 -40 c3 -8 2 -12 -4 -9 -6 3 -10 10 -10 16 0 14 7
11 14 -7z m20 -40 c3 -8 2 -12 -4 -9 -6 3 -10 10 -10 16 0 14 7 11 14 -7z
m-185 -43 c-6 -18 -13 -30 -15 -28 -2 2 1 18 7 36 6 18 13 30 15 28 2 -2 -1
-18 -7 -36z m205 3 c3 -8 2 -12 -4 -9 -6 3 -10 10 -10 16 0 14 7 11 14 -7z
m-1127 -71 c-2 -16 -4 -5 -4 22 0 28 2 40 4 28 2 -13 2 -35 0 -50z m1440 20
c-3 -10 -5 -2 -5 17 0 19 2 27 5 18 2 -10 2 -26 0 -35z m-283 -10 c9 -18 14
-33 12 -33 -6 0 -36 55 -36 66 0 11 5 3 24 -33z m200 -53 c-25 -50 -48 -89
-50 -87 -4 4 85 177 92 177 3 0 -16 -41 -42 -90z m93 -7 c-3 -10 -5 -2 -5 17
0 19 2 27 5 18 2 -10 2 -26 0 -35z m-1460 -20 c-3 -10 -5 -4 -5 12 0 17 2 24
5 18 2 -7 2 -21 0 -30z m1197 21 c3 -8 2 -12 -4 -9 -6 3 -10 10 -10 16 0 14 7
11 14 -7z m20 -40 c3 -8 2 -12 -4 -9 -6 3 -10 10 -10 16 0 14 7 11 14 -7z
m253 -36 c-2 -13 -4 -5 -4 17 -1 22 1 32 4 23 2 -10 2 -28 0 -40z m-1487 -49
c-17 -81 -24 -68 -8 15 7 37 14 62 17 55 2 -6 -2 -38 -9 -70z m1254 45 c3 -8
2 -12 -4 -9 -6 3 -10 10 -10 16 0 14 7 11 14 -7z m594 -1 c-86 -102 -291 -333
-295 -333 -3 0 26 35 64 78 37 42 106 121 153 175 46 53 86 97 89 97 2 0 -3
-8 -11 -17z m-535 -48 c-9 -19 -20 -35 -23 -35 -9 0 -32 51 -26 57 2 2 7 -5
11 -16 9 -28 19 -26 33 4 6 14 14 25 17 25 2 0 -3 -16 -12 -35z m574 -12 c-3
-10 -5 -2 -5 17 0 19 2 27 5 18 2 -10 2 -26 0 -35z m-390 0 c-3 -10 -5 -4 -5
12 0 17 2 24 5 18 2 -7 2 -21 0 -30z m10 -75 c-2 -13 -4 -5 -4 17 -1 22 1 32
4 23 2 -10 2 -28 0 -40z m407 -67 c4 -42 3 -48 -4 -22 -4 19 -11 59 -14 90 -4
42 -3 48 4 22 4 -19 11 -59 14 -90z m-1447 21 c-64 -64 -83 -78 -103 -74 -13
2 -24 7 -24 9 0 3 11 3 24 1 20 -4 38 9 98 69 40 40 75 73 78 73 2 0 -31 -35
-73 -78z m-490 46 c-3 -8 -6 -5 -6 6 -1 11 2 17 5 13 3 -3 4 -12 1 -19z m2387
-45 c-34 -54 -69 -99 -49 -63 23 41 76 120 81 120 2 0 -12 -26 -32 -57z m63
-241 c-1 -53 -3 -7 -3 103 0 110 2 154 3 97 2 -57 2 -147 0 -200z m-2407 258
c20 -6 21 -8 5 -8 -11 0 -31 4 -45 8 -20 6 -21 8 -5 8 11 0 31 -4 45 -8z
m1497 -37 c-3 -10 -5 -4 -5 12 0 17 2 24 5 18 2 -7 2 -21 0 -30z m-1440 21
c-3 -3 -12 -4 -19 -1 -8 3 -5 6 6 6 11 1 17 -2 13 -5z m88 -18 c28 -8 43 -15
35 -15 -8 0 -37 6 -65 13 -27 8 -43 15 -35 15 8 0 38 -6 65 -13z m82 -22 c-3
-3 -12 -4 -19 -1 -8 3 -5 6 6 6 11 1 17 -2 13 -5z m40 -10 c-3 -3 -12 -4 -19
-1 -8 3 -5 6 6 6 11 1 17 -2 13 -5z m1256 -109 c4 -8 2 -17 -2 -19 -9 -6 -22
69 -20 113 1 14 5 2 9 -26 4 -29 10 -59 13 -68z m-1216 99 c-3 -3 -12 -4 -19
-1 -8 3 -5 6 6 6 11 1 17 -2 13 -5z m1611 -119 c-1 -31 -16 35 -16 70 0 25 2
24 9 -10 4 -22 8 -49 7 -60z m356 67 c-9 -16 -25 -39 -36 -53 l-20 -24 16 28
c28 48 48 77 53 77 2 0 -3 -13 -13 -28z m571 -81 c-27 -23 -415 -311 -415
-306 0 6 411 315 419 315 3 0 1 -4 -4 -9z m-641 -29 c-9 -16 -25 -39 -36 -53
l-20 -24 16 28 c28 48 48 77 53 77 2 0 -3 -13 -13 -28z m-277 -29 c-3 -10 -5
-2 -5 17 0 19 2 27 5 18 2 -10 2 -26 0 -35z m914 -43 c-11 -36 -20 -59 -20
-52 -1 18 33 136 36 126 2 -5 -6 -38 -16 -74z m-904 -12 c-3 -7 -5 -2 -5 12 0
14 2 19 5 13 2 -7 2 -19 0 -25z m197 -26 c-9 -16 -25 -39 -36 -53 l-20 -24 16
28 c28 48 48 77 53 77 2 0 -3 -13 -13 -28z m-187 -39 c-3 -10 -5 -2 -5 17 0
19 2 27 5 18 2 -10 2 -26 0 -35z m862 -47 c-6 -26 -13 -45 -16 -43 -2 3 1 26
8 51 6 26 13 45 16 43 2 -3 -1 -26 -8 -51z m-392 -63 c-2 -21 -4 -4 -4 37 0
41 2 58 4 38 2 -21 2 -55 0 -75z m-449 2 c0 -25 -2 -24 -9 10 -10 51 -10 92 1
50 4 -16 8 -43 8 -60z m1242 61 c-18 -16 -499 -366 -504 -366 -2 0 -2 9 1 21
3 11 9 16 12 11 3 -6 116 70 251 169 230 167 275 198 240 165z m-1142 -18 c-9
-13 -30 -47 -47 -75 -36 -59 -52 -67 -50 -25 2 25 2 26 6 3 4 -21 10 -15 50
47 24 40 47 72 50 72 3 0 -1 -10 -9 -22z m1153 -29 c-5 -13 -10 -19 -10 -12
-1 15 10 45 15 40 3 -2 0 -15 -5 -28z m-434 -31 c-3 -8 -6 -5 -6 6 -1 11 2 17
5 13 3 -3 4 -12 1 -19z m417 -32 c-3 -15 -8 -25 -11 -23 -2 3 -1 17 3 31 3 15
8 25 11 23 2 -3 1 -17 -3 -31z m-430 -25 c-4 -17 -9 -30 -11 -27 -3 2 -2 19 2
36 4 17 9 30 11 27 2 -2 1 -18 -2 -36z m365 -200 c-29 -100 -54 -180 -56 -177
-2 2 19 85 48 185 29 100 54 180 56 177 2 -2 -19 -85 -48 -185z m-390 105 c-6
-26 -13 -45 -16 -43 -2 3 1 26 8 51 6 26 13 45 16 43 2 -3 -1 -26 -8 -51z
m1011 -51 c0 -2 -13 -11 -30 -20 -38 -19 -40 -11 -2 9 31 17 32 18 32 11z
m-1033 -27 c-3 -8 -6 -5 -6 6 -1 11 2 17 5 13 3 -3 4 -12 1 -19z m1034 -25
c-12 -20 -14 -14 -5 12 4 9 9 14 11 11 3 -2 0 -13 -6 -23z m-71 13 c0 -2 -53
-35 -117 -71 -144 -82 -140 -80 -130 -69 7 8 237 143 245 144 1 0 2 -2 2 -4z
m51 -63 c-12 -20 -14 -14 -5 12 4 9 9 14 11 11 3 -2 0 -13 -6 -23z m-42 -117
c-12 -31 -24 -55 -26 -53 -2 2 6 30 18 61 12 31 24 55 26 53 2 -2 -6 -30 -18
-61z m-269 29 c0 -2 -13 -11 -30 -20 -38 -19 -40 -11 -2 9 31 17 32 18 32 11z
m-70 -40 c0 -2 -13 -11 -30 -20 -38 -19 -40 -11 -2 9 31 17 32 18 32 11z
m-286 -49 c-3 -15 -8 -25 -11 -23 -2 3 -1 17 3 31 3 15 8 25 11 23 2 -3 1 -17
-3 -31z m216 9 c0 -2 -13 -11 -30 -20 -38 -19 -40 -11 -2 9 31 17 32 18 32 11z
m371 -42 c-12 -20 -14 -14 -5 12 4 9 9 14 11 11 3 -2 0 -13 -6 -23z m-441 3
c0 -4 -122 -76 -177 -104 -19 -10 -20 -9 -16 9 3 11 9 16 12 10 4 -6 41 10 91
39 89 52 90 52 90 46z m-166 -40 c-3 -15 -8 -25 -11 -23 -2 3 -1 17 3 31 3 15
8 25 11 23 2 -3 1 -17 -3 -31z m565 -80 c-12 -31 -24 -55 -26 -53 -2 2 6 30
18 61 12 31 24 55 26 53 2 -2 -6 -30 -18 -61z m-38 -93 c-12 -20 -14 -14 -5
12 4 9 9 14 11 11 3 -2 0 -13 -6 -23z m602 -40 c-7 -2 -21 -2 -30 0 -10 3 -4
5 12 5 17 0 24 -2 18 -5z m-60 -10 c-7 -2 -21 -2 -30 0 -10 3 -4 5 12 5 17 0
24 -2 18 -5z m62 -43 c-14 -27 -28 -50 -30 -50 -3 0 6 23 20 50 14 28 28 50
30 50 3 0 -6 -22 -20 -50z m-639 -4 l-15 -36 27 -1 27 -1 -30 -7 c-16 -4 -32
-6 -34 -5 -2 2 5 23 14 49 10 25 20 44 22 41 2 -2 -3 -20 -11 -40z m517 37
c-7 -2 -21 -2 -30 0 -10 3 -4 5 12 5 17 0 24 -2 18 -5z m-88 -14 c-51 -10 -92
-10 -50 1 17 4 44 8 60 8 25 0 24 -2 -10 -9z m-102 -16 c-7 -2 -21 -2 -30 0
-10 3 -4 5 12 5 17 0 24 -2 18 -5z m-60 -10 c-7 -2 -21 -2 -30 0 -10 3 -4 5
12 5 17 0 24 -2 18 -5z m-60 -10 c-7 -2 -21 -2 -30 0 -10 3 -4 5 12 5 17 0 24
-2 18 -5z m-60 -10 c-7 -2 -21 -2 -30 0 -10 3 -4 5 12 5 17 0 24 -2 18 -5z
m-60 -10 c-7 -2 -21 -2 -30 0 -10 3 -4 5 12 5 17 0 24 -2 18 -5z m472 -113
c-19 -38 -38 -70 -40 -70 -3 0 11 32 30 70 19 39 38 70 40 70 3 0 -11 -31 -30
-70z m-85 -160 c-22 -44 -42 -80 -45 -80 -3 0 13 36 35 80 22 44 42 80 45 80
3 0 -13 -36 -35 -80z m-60 -109 c-5 -11 -10 -22 -10 -25 0 -3 78 -7 173 -9
l172 -3 -183 -2 -183 -2 16 30 c9 17 18 30 21 30 2 0 0 -9 -6 -19z m349 -80
c-6 -18 -13 -30 -15 -28 -2 2 1 18 7 36 6 18 13 30 15 28 2 -2 -1 -18 -7 -36z
m-50 -135 c-12 -31 -24 -55 -26 -53 -2 2 6 30 18 61 12 31 24 55 26 53 2 -2
-6 -30 -18 -61z m-50 -135 c-6 -18 -13 -30 -15 -28 -2 2 1 18 7 36 6 18 13 30
15 28 2 -2 -1 -18 -7 -36z m-28 -68 c-12 -20 -14 -14 -5 12 4 9 9 14 11 11 3
-2 0 -13 -6 -23z m-32 -92 c-6 -18 -13 -30 -15 -28 -2 2 1 18 7 36 6 18 13 30
15 28 2 -2 -1 -18 -7 -36z m-38 -101 c-20 -52 -20 -53 0 -91 11 -22 17 -39 14
-39 -2 0 -13 17 -24 38 -20 39 -20 39 1 96 12 31 23 55 25 52 2 -2 -5 -27 -16
-56z m927 -67 c-10 -2 -28 -2 -40 0 -13 2 -5 4 17 4 22 1 32 -1 23 -4z m120 0
c-10 -2 -28 -2 -40 0 -13 2 -5 4 17 4 22 1 32 -1 23 -4z m-223 -17 c-101 -32
-203 -111 -265 -204 -17 -25 -30 -41 -30 -35 0 16 70 102 124 151 49 45 157
102 191 101 11 0 2 -6 -20 -13z m325 -1 c46 -18 28 -18 -35 0 -29 8 -39 14
-25 14 14 0 41 -7 60 -14z m100 -37 c10 -6 7 -7 -10 -2 -14 3 -32 11 -40 16
-10 6 -7 7 10 2 14 -3 32 -11 40 -16z m139 -63 c58 -31 117 -65 131 -77 l25
-20 -30 18 c-16 10 -79 44 -140 76 -60 32 -106 58 -101 58 5 0 56 -25 115 -55z
m-1333 -6 c14 -28 24 -53 22 -55 -2 -2 -16 21 -31 51 -15 30 -25 55 -22 55 3
0 16 -23 31 -51z m63 -144 c0 -5 -6 1 -14 15 -8 14 -14 30 -14 35 0 6 6 -1 14
-15 8 -14 14 -29 14 -35z m1536 -14 c44 -30 186 -134 315 -231 129 -97 261
-194 293 -215 31 -21 57 -40 57 -42 0 -11 -82 47 -323 227 -144 108 -300 222
-347 254 -83 58 -121 88 -90 71 8 -5 51 -33 95 -64z m-671 4 c-4 -8 -8 -15
-10 -15 -2 0 -4 7 -4 15 0 8 4 15 10 15 5 0 7 -7 4 -15z m43 -1 c-3 -3 -12 -4
-19 -1 -8 3 -5 6 6 6 11 1 17 -2 13 -5z m-887 -39 c0 -5 -5 -3 -10 5 -5 8 -10
20 -10 25 0 6 5 3 10 -5 5 -8 10 -19 10 -25z m1010 10 c83 -27 63 -25 -45 4
-38 11 -61 20 -50 20 11 1 54 -10 95 -24z m-639 -2 c-5 -10 -17 -27 -26 -38
-16 -19 -17 -19 -3 5 26 46 29 50 34 50 3 0 0 -8 -5 -17z m456 -15 c-3 -8 -6
-5 -6 6 -1 11 2 17 5 13 3 -3 4 -12 1 -19z m-803 -58 c5 -17 4 -20 -2 -10 -5
8 -13 26 -16 40 -5 17 -4 20 2 10 5 -8 13 -26 16 -40z m1128 31 c31 -11 68
-27 84 -36 31 -17 25 -16 -76 22 -59 22 -81 33 -68 33 3 0 30 -9 60 -19z
m-347 -38 c-9 -15 -13 -19 -10 -8 4 11 10 29 13 40 3 11 7 14 9 8 3 -7 -3 -24
-12 -40z m-484 0 c-5 -10 -17 -27 -26 -38 -16 -19 -17 -19 -3 5 26 46 29 50
34 50 3 0 0 -8 -5 -17z m1009 -38 c25 -13 41 -24 35 -24 -5 0 -30 11 -55 24
-25 13 -40 24 -35 24 6 0 30 -11 55 -24z m-1281 -30 c0 -5 -4 -3 -9 5 -5 8 -9
22 -9 30 0 16 17 -16 18 -35z m732 18 c-14 -27 -107 -112 -186 -173 -110 -85
-379 -325 -446 -398 -33 -37 -83 -101 -111 -142 -57 -86 -67 -97 -45 -55 24
47 105 155 166 219 72 76 341 313 453 400 48 36 106 89 130 116 47 53 54 59
39 33z m-527 -60 c-15 -27 -32 -52 -37 -58 -11 -12 19 49 41 83 26 40 23 23
-4 -25z m1151 29 c-3 -3 -11 0 -18 7 -9 10 -8 11 6 5 10 -3 15 -9 12 -12z
m-1336 -52 c0 -9 -4 -8 -9 5 -5 11 -9 27 -9 35 0 9 4 8 9 -5 5 -11 9 -27 9
-35z m1516 -42 c13 -13 -126 61 -140 75 -5 6 22 -7 60 -27 39 -21 75 -43 80
-48z m-1508 0 c-3 -8 -6 -5 -6 6 -1 11 2 17 5 13 3 -3 4 -12 1 -19z m121 -33
c-6 -14 -13 -23 -15 -21 -5 5 15 46 22 46 3 0 -1 -11 -7 -25z m1442 -1 c0 -2
-9 0 -20 6 -11 6 -20 13 -20 16 0 2 9 0 20 -6 11 -6 20 -13 20 -16z m-1536
-64 c4 -30 3 -36 -3 -20 -12 37 -22 109 -12 85 5 -11 11 -40 15 -65z m1627 8
l24 -20 -31 17 c-17 10 -41 26 -55 37 l-24 20 31 -17 c17 -10 41 -26 55 -37z
m-1566 -13 c-8 -19 -22 -51 -30 -70 -19 -44 -25 -44 -25 -2 0 21 3 27 9 19 5
-9 15 2 30 37 12 28 24 51 26 51 3 0 -2 -16 -10 -35z m1755 -113 c150 -106
315 -235 630 -488 151 -121 282 -224 290 -227 12 -5 12 -6 -2 -4 -9 1 -128 92
-264 202 -307 247 -493 392 -649 502 -66 47 -124 90 -130 96 -18 18 15 -4 125
-81z m336 -30 c-5 -4 -66 26 -66 33 0 3 16 -3 35 -12 19 -9 33 -18 31 -21z
m83 -18 c10 -9 -45 -3 -59 6 -11 7 -5 8 20 4 19 -4 37 -8 39 -10z m-2404 -520
c-13 -32 -24 -54 -25 -48 0 15 42 116 46 111 2 -2 -7 -30 -21 -63z m-38 -116
c-3 -8 -6 -5 -6 6 -1 11 2 17 5 13 3 -3 4 -12 1 -19z m-1000 -32 c12 -15 23
-32 23 -39 -1 -7 -8 1 -16 16 -8 15 -26 32 -40 37 -36 14 -110 12 -122 -3 -6
-7 -33 -28 -59 -47 -57 -40 -50 -30 20 27 50 41 54 43 111 40 50 -3 63 -8 83
-31z m987 -20 c-3 -15 -8 -25 -11 -23 -2 3 -1 17 3 31 3 15 8 25 11 23 2 -3 1
-17 -3 -31z m2983 -32 c-3 -3 -12 -4 -19 -1 -8 3 -5 6 6 6 11 1 17 -2 13 -5z
m-3940 -56 c-2 -13 -4 -5 -4 17 -1 22 1 32 4 23 2 -10 2 -28 0 -40z m934 21
c-5 -13 -10 -19 -10 -12 -1 15 10 45 15 40 3 -2 0 -15 -5 -28z m2957 24 c-10
-2 -26 -2 -35 0 -10 3 -2 5 17 5 19 0 27 -2 18 -5z m-4203 -19 c-26 -20 -55
-36 -55 -30 0 5 63 46 70 46 3 -1 -4 -8 -15 -16z m4128 9 c-13 -2 -33 -2 -45
0 -13 2 -3 4 22 4 25 0 35 -2 23 -4z m-85 -10 c-10 -2 -26 -2 -35 0 -10 3 -2
5 17 5 19 0 27 -2 18 -5z m-75 -10 c-13 -2 -33 -2 -45 0 -13 2 -3 4 22 4 25 0
35 -2 23 -4z m-85 -10 c-10 -2 -26 -2 -35 0 -10 3 -2 5 17 5 19 0 27 -2 18 -5z
m-75 -10 c-13 -2 -33 -2 -45 0 -13 2 -3 4 22 4 25 0 35 -2 23 -4z m-3873 -8
c0 -6 -76 -45 -87 -45 -4 1 12 12 37 25 50 27 50 27 50 20z m1297 -17 c-3 -8
-6 -5 -6 6 -1 11 2 17 5 13 3 -3 4 -12 1 -19z m2491 15 c-10 -2 -26 -2 -35 0
-10 3 -2 5 17 5 19 0 27 -2 18 -5z m-4628 -18 c42 -16 26 -20 -19 -4 -30 11
-33 9 -116 -69 -46 -44 -115 -101 -154 -126 -69 -46 -171 -96 -194 -96 -7 0
18 13 55 29 95 40 196 111 291 202 45 43 87 78 92 78 6 0 26 -7 45 -14z m4553
8 c-13 -2 -33 -2 -45 0 -13 2 -3 4 22 4 25 0 35 -2 23 -4z m-85 -10 c-10 -2
-28 -2 -40 0 -13 2 -5 4 17 4 22 1 32 -1 23 -4z m-80 -10 c-10 -2 -28 -2 -40
0 -13 2 -5 4 17 4 22 1 32 -1 23 -4z m-2261 -50 c-3 -10 -5 -2 -5 17 0 19 2
27 5 18 2 -10 2 -26 0 -35z m2171 40 c-10 -2 -26 -2 -35 0 -10 3 -2 5 17 5 19
0 27 -2 18 -5z m-4183 -13 c13 -5 14 -9 5 -9 -8 0 -24 4 -35 9 -13 5 -14 9 -5
9 8 0 24 -4 35 -9z m599 -5 c-17 -8 -44 -16 -60 -20 -16 -3 -6 4 21 14 57 22
86 26 39 6z m3514 8 c-10 -2 -28 -2 -40 0 -13 2 -5 4 17 4 22 1 32 -1 23 -4z
m-90 -10 c-10 -2 -26 -2 -35 0 -10 3 -2 5 17 5 19 0 27 -2 18 -5z m-3938 -13
c20 -6 21 -8 5 -8 -11 0 -31 4 -45 8 -20 6 -21 8 -5 8 11 0 31 -4 45 -8z
m1027 -112 c-2 -24 -4 -5 -4 42 0 47 2 66 4 43 2 -24 2 -62 0 -85z m2841 115
c-10 -2 -28 -2 -40 0 -13 2 -5 4 17 4 22 1 32 -1 23 -4z m-90 -10 c-10 -2 -26
-2 -35 0 -10 3 -2 5 17 5 19 0 27 -2 18 -5z m-3705 -10 c-7 -2 -21 -2 -30 0
-10 3 -4 5 12 5 17 0 24 -2 18 -5z m340 0 c-7 -2 -19 -2 -25 0 -7 3 -2 5 12 5
14 0 19 -2 13 -5z m3290 0 c-13 -2 -33 -2 -45 0 -13 2 -3 4 22 4 25 0 35 -2
23 -4z m-3555 -10 c-10 -2 -28 -2 -40 0 -13 2 -5 4 17 4 22 1 32 -1 23 -4z
m210 0 c-10 -2 -26 -2 -35 0 -10 3 -2 5 17 5 19 0 27 -2 18 -5z m3260 0 c-10
-2 -26 -2 -35 0 -10 3 -2 5 17 5 19 0 27 -2 18 -5z m-3350 -10 c-15 -2 -42 -2
-60 0 -18 2 -6 4 27 4 33 0 48 -2 33 -4z m1649 -115 c-2 -24 -4 -5 -4 42 0 47
2 66 4 43 2 -24 2 -62 0 -85z m1626 115 c-13 -2 -33 -2 -45 0 -13 2 -3 4 22 4
25 0 35 -2 23 -4z m-85 -10 c-10 -2 -26 -2 -35 0 -10 3 -2 5 17 5 19 0 27 -2
18 -5z m-75 -10 c-13 -2 -33 -2 -45 0 -13 2 -3 4 22 4 25 0 35 -2 23 -4z m-85
-10 c-10 -2 -26 -2 -35 0 -10 3 -2 5 17 5 19 0 27 -2 18 -5z m-75 -10 c-13 -2
-33 -2 -45 0 -13 2 -3 4 22 4 25 0 35 -2 23 -4z m-85 -10 c-10 -2 -28 -2 -40
0 -13 2 -5 4 17 4 22 1 32 -1 23 -4z m-80 -10 c-10 -2 -28 -2 -40 0 -13 2 -5
4 17 4 22 1 32 -1 23 -4z m-90 -10 c-10 -2 -26 -2 -35 0 -10 3 -2 5 17 5 19 0
27 -2 18 -5z m-75 -10 c-13 -2 -33 -2 -45 0 -13 2 -3 4 22 4 25 0 35 -2 23 -4z
m-85 -10 c-10 -2 -26 -2 -35 0 -10 3 -2 5 17 5 19 0 27 -2 18 -5z m-75 -10
c-13 -2 -33 -2 -45 0 -13 2 -3 4 22 4 25 0 35 -2 23 -4z m-85 -10 c-10 -2 -26
-2 -35 0 -10 3 -2 5 17 5 19 0 27 -2 18 -5z m-75 -10 c-13 -2 -33 -2 -45 0
-13 2 -3 4 22 4 25 0 35 -2 23 -4z m-85 -10 c-10 -2 -26 -2 -35 0 -10 3 -2 5
17 5 19 0 27 -2 18 -5z m-1451 -115 c-2 -24 -4 -7 -4 37 0 44 2 63 4 43 2 -21
2 -57 0 -80z m1376 105 c-13 -2 -33 -2 -45 0 -13 2 -3 4 22 4 25 0 35 -2 23
-4z m-3653 -14 c12 -8 11 -9 -6 -4 -19 5 -25 -2 -44 -52 -29 -72 -79 -173 -85
-173 -3 0 8 26 23 58 16 31 40 85 53 120 24 63 32 70 59 51z m3568 4 c-10 -2
-26 -2 -35 0 -10 3 -2 5 17 5 19 0 27 -2 18 -5z m-75 -10 c-13 -2 -33 -2 -45
0 -13 2 -3 4 22 4 25 0 35 -2 23 -4z m-3423 -18 c19 -7 28 -14 20 -14 -8 0
-28 6 -45 14 -39 17 -21 18 25 0z m3338 8 c-10 -2 -26 -2 -35 0 -10 3 -2 5 17
5 19 0 27 -2 18 -5z m-75 -10 c-13 -2 -33 -2 -45 0 -13 2 -3 4 22 4 25 0 35
-2 23 -4z m-85 -10 c-10 -2 -28 -2 -40 0 -13 2 -5 4 17 4 22 1 32 -1 23 -4z
m-3088 -13 c20 -6 21 -8 5 -8 -11 0 -29 3 -40 8 -25 11 1 11 35 0z m3013 3
c-7 -2 -19 -2 -25 0 -7 3 -2 5 12 5 14 0 19 -2 13 -5z m-2689 -24 c-16 -4 -76
-7 -134 -7 -58 0 -118 3 -134 7 -17 3 44 6 134 6 90 0 151 -3 134 -6z m1794
-86 c-10 -2 -26 -2 -35 0 -10 3 -2 5 17 5 19 0 27 -2 18 -5z m-75 -10 c-13 -2
-33 -2 -45 0 -13 2 -3 4 22 4 25 0 35 -2 23 -4z m-85 -10 c-10 -2 -26 -2 -35
0 -10 3 -2 5 17 5 19 0 27 -2 18 -5z m-75 -10 c-13 -2 -33 -2 -45 0 -13 2 -3
4 22 4 25 0 35 -2 23 -4z m-85 -10 c-10 -2 -26 -2 -35 0 -10 3 -2 5 17 5 19 0
27 -2 18 -5z m-75 -10 c-13 -2 -33 -2 -45 0 -13 2 -3 4 22 4 25 0 35 -2 23 -4z
m-85 -10 c-10 -2 -28 -2 -40 0 -13 2 -5 4 17 4 22 1 32 -1 23 -4z m-80 -10
c-10 -2 -28 -2 -40 0 -13 2 -5 4 17 4 22 1 32 -1 23 -4z m-90 -10 c-10 -2 -26
-2 -35 0 -10 3 -2 5 17 5 19 0 27 -2 18 -5z m-1778 -23 c-6 -11 -34 -44 -63
-73 -40 -42 -43 -43 -11 -8 22 26 49 59 58 74 21 31 32 36 16 7z m1708 13
c-10 -2 -28 -2 -40 0 -13 2 -5 4 17 4 22 1 32 -1 23 -4z m-90 -10 c-10 -2 -26
-2 -35 0 -10 3 -2 5 17 5 19 0 27 -2 18 -5z m-75 -10 c-13 -2 -33 -2 -45 0
-13 2 -3 4 22 4 25 0 35 -2 23 -4z m-85 -10 c-10 -2 -26 -2 -35 0 -10 3 -2 5
17 5 19 0 27 -2 18 -5z m-75 -10 c-13 -2 -33 -2 -45 0 -13 2 -3 4 22 4 25 0
35 -2 23 -4z m-85 -10 c-10 -2 -26 -2 -35 0 -10 3 -2 5 17 5 19 0 27 -2 18 -5z
m-75 -10 c-13 -2 -33 -2 -45 0 -13 2 -3 4 22 4 25 0 35 -2 23 -4z m-85 -10
c-10 -2 -26 -2 -35 0 -10 3 -2 5 17 5 19 0 27 -2 18 -5z m-75 -10 c-13 -2 -33
-2 -45 0 -13 2 -3 4 22 4 25 0 35 -2 23 -4z m-85 -10 c-10 -2 -26 -2 -35 0
-10 3 -2 5 17 5 19 0 27 -2 18 -5z m-75 -10 c-13 -2 -33 -2 -45 0 -13 2 -3 4
22 4 25 0 35 -2 23 -4z m-85 -10 c-10 -2 -26 -2 -35 0 -10 3 -2 5 17 5 19 0
27 -2 18 -5z m-75 -10 c-13 -2 -33 -2 -45 0 -13 2 -3 4 22 4 25 0 35 -2 23 -4z
m-85 -10 c-10 -2 -26 -2 -35 0 -10 3 -2 5 17 5 19 0 27 -2 18 -5z m-75 -10
c-13 -2 -33 -2 -45 0 -13 2 -3 4 22 4 25 0 35 -2 23 -4z m-713 -8 c0 -2 -10
-9 -22 -15 -22 -11 -22 -10 -4 4 21 17 26 19 26 11z m623 -2 c-7 -2 -21 -2
-30 0 -10 3 -4 5 12 5 17 0 24 -2 18 -5z m-70 -10 c-13 -2 -33 -2 -45 0 -13 2
-3 4 22 4 25 0 35 -2 23 -4z m-3768 -13 c-28 -12 -57 -12 -50 0 3 6 21 10 38
9 27 0 29 -2 12 -9z m3673 3 c-10 -2 -26 -2 -35 0 -10 3 -2 5 17 5 19 0 27 -2
18 -5z m-3525 -10 c-24 -2 -62 -2 -85 0 -24 2 -5 4 42 4 47 0 66 -2 43 -4z
m3455 0 c-10 -2 -28 -2 -40 0 -13 2 -5 4 17 4 22 1 32 -1 23 -4z m-3320 -10
c-16 -2 -40 -2 -55 0 -16 2 -3 4 27 4 30 0 43 -2 28 -4z m2837 -8 c-16 -8 -37
-14 -45 -14 -8 0 1 7 20 14 46 18 64 17 25 0z m393 8 c-10 -2 -26 -2 -35 0
-10 3 -2 5 17 5 19 0 27 -2 18 -5z m-3110 -10 c-16 -2 -40 -2 -55 0 -16 2 -3
4 27 4 30 0 43 -2 28 -4z m3040 0 c-10 -2 -28 -2 -40 0 -13 2 -5 4 17 4 22 1
32 -1 23 -4z m-3463 -19 c-22 -8 -48 -25 -58 -37 l-18 -22 11 23 c12 23 61 52
90 51 8 0 -3 -7 -25 -15z m512 -25 c13 -23 16 -36 8 -29 -8 6 -17 21 -20 32
-4 10 -16 23 -28 28 -21 8 -21 9 -2 9 13 1 27 -13 42 -40z m2861 34 c-10 -2
-26 -2 -35 0 -10 3 -2 5 17 5 19 0 27 -2 18 -5z m2995 -53 c-24 -72 -53 -92
-135 -94 -67 -1 -89 8 -109 47 -10 17 -8 17 19 -3 39 -29 103 -30 140 -3 15
11 43 40 62 66 19 25 36 45 37 43 2 -2 -4 -27 -14 -56z m-3588 41 c-17 -4 -43
-16 -58 -25 -15 -10 -27 -16 -27 -13 0 12 67 47 90 46 23 -1 22 -2 -5 -8z
m283 2 c-10 -2 -26 -2 -35 0 -10 3 -2 5 17 5 19 0 27 -2 18 -5z m240 0 c-10
-2 -28 -2 -40 0 -13 2 -5 4 17 4 22 1 32 -1 23 -4z m-340 -10 c-26 -2 -71 -2
-100 0 -29 2 -8 3 47 3 55 0 79 -1 53 -3z m250 0 c-10 -2 -26 -2 -35 0 -10 3
-2 5 17 5 19 0 27 -2 18 -5z m-70 -10 c-10 -2 -28 -2 -40 0 -13 2 -5 4 17 4
22 1 32 -1 23 -4z m-90 -10 c-10 -2 -26 -2 -35 0 -10 3 -2 5 17 5 19 0 27 -2
18 -5z m-75 -10 c-13 -2 -33 -2 -45 0 -13 2 -3 4 22 4 25 0 35 -2 23 -4z
m-306 -17 c-14 -11 -15 -15 -5 -19 7 -3 0 -6 -17 -6 l-30 -1 30 20 c34 22 49
26 22 6z m221 7 c-10 -2 -26 -2 -35 0 -10 3 -2 5 17 5 19 0 27 -2 18 -5z m-75
-10 c-13 -2 -33 -2 -45 0 -13 2 -3 4 22 4 25 0 35 -2 23 -4z m-2902 -26 c-10
-9 -11 -8 -5 6 3 10 9 15 12 12 3 -3 0 -11 -7 -18z m2817 16 c-10 -2 -26 -2
-35 0 -10 3 -2 5 17 5 19 0 27 -2 18 -5z m-2093 -99 c19 -14 55 -34 82 -44 26
-11 42 -19 35 -20 -43 -1 -162 77 -201 132 l-23 33 36 -37 c21 -21 52 -49 71
-64z m778 69 c-7 -2 -19 -2 -25 0 -7 3 -2 5 12 5 14 0 19 -2 13 -5z m-1528
-33 c-9 -16 -18 -30 -21 -30 -2 0 2 14 11 30 9 17 18 30 21 30 2 0 -2 -13 -11
-30z m1468 23 c-7 -2 -19 -2 -25 0 -7 3 -2 5 12 5 14 0 19 -2 13 -5z m114 1
c-3 -3 -12 -4 -19 -1 -8 3 -5 6 6 6 11 1 17 -2 13 -5z m-160 -10 c-3 -3 -12
-4 -19 -1 -8 3 -5 6 6 6 11 1 17 -2 13 -5z m216 -14 c15 -12 36 -34 47 -50
l21 -30 -23 0 c-15 0 -19 3 -11 8 17 11 -9 47 -51 73 -17 10 -26 19 -20 19 6
0 23 -9 37 -20z m-268 0 c-27 -12 -43 -12 -25 0 8 5 22 9 30 9 10 0 8 -3 -5
-9z m-80 -29 c-47 -21 -92 -36 -85 -28 7 8 103 46 115 46 6 0 -8 -8 -30 -18z
m-1341 -58 c-15 -27 -45 -74 -66 -105 -21 -32 -43 -68 -48 -80 -5 -13 -9 -17
-9 -9 -1 8 25 55 58 105 32 50 63 101 70 114 6 12 14 22 17 22 3 0 -7 -21 -22
-47z m1231 17 c-11 -5 -27 -9 -35 -9 -9 0 -8 4 5 9 11 5 27 9 35 9 9 0 8 -4
-5 -9z m-58 -16 c-3 -3 -12 -4 -19 -1 -8 3 -5 6 6 6 11 1 17 -2 13 -5z m516
-1 c-13 -2 -33 -2 -45 0 -13 2 -3 4 22 4 25 0 35 -2 23 -4z m-560 -10 c-7 -2
-19 -2 -25 0 -7 3 -2 5 12 5 14 0 19 -2 13 -5z m475 0 c-10 -2 -26 -2 -35 0
-10 3 -2 5 17 5 19 0 27 -2 18 -5z m-550 -10 c-21 -2 -55 -2 -75 0 -21 2 -4 4
37 4 41 0 58 -2 38 -4z m475 0 c-13 -2 -33 -2 -45 0 -13 2 -3 4 22 4 25 0 35
-2 23 -4z m-85 -10 c-10 -2 -26 -2 -35 0 -10 3 -2 5 17 5 19 0 27 -2 18 -5z
m-75 -10 c-13 -2 -33 -2 -45 0 -13 2 -3 4 22 4 25 0 35 -2 23 -4z m-85 -10
c-10 -2 -26 -2 -35 0 -10 3 -2 5 17 5 19 0 27 -2 18 -5z m-75 -10 c-13 -2 -33
-2 -45 0 -13 2 -3 4 22 4 25 0 35 -2 23 -4z m-85 -10 c-10 -2 -26 -2 -35 0
-10 3 -2 5 17 5 19 0 27 -2 18 -5z m-75 -10 c-13 -2 -33 -2 -45 0 -13 2 -3 4
22 4 25 0 35 -2 23 -4z m-118 -14 c-22 -4 -56 -7 -75 -7 -32 1 -31 2 10 8 25
4 59 7 75 7 25 1 23 -1 -10 -8z m-137 -16 c-10 -2 -26 -2 -35 0 -10 3 -2 5 17
5 19 0 27 -2 18 -5z m-70 -10 c-10 -2 -28 -2 -40 0 -13 2 -5 4 17 4 22 1 32
-1 23 -4z m-90 -10 c-10 -2 -26 -2 -35 0 -10 3 -2 5 17 5 19 0 27 -2 18 -5z
m-75 -10 c-13 -2 -33 -2 -45 0 -13 2 -3 4 22 4 25 0 35 -2 23 -4z m-85 -10
c-10 -2 -26 -2 -35 0 -10 3 -2 5 17 5 19 0 27 -2 18 -5z m-75 -10 c-13 -2 -33
-2 -45 0 -13 2 -3 4 22 4 25 0 35 -2 23 -4z m-85 -10 c-10 -2 -26 -2 -35 0
-10 3 -2 5 17 5 19 0 27 -2 18 -5z m-75 -10 c-13 -2 -33 -2 -45 0 -13 2 -3 4
22 4 25 0 35 -2 23 -4z m-118 -14 c-22 -4 -56 -7 -75 -7 -32 1 -31 2 10 8 25
4 59 7 75 7 25 1 23 -1 -10 -8z m-137 -16 c-10 -2 -26 -2 -35 0 -10 3 -2 5 17
5 19 0 27 -2 18 -5z m-70 -10 c-10 -2 -26 -2 -35 0 -10 3 -2 5 17 5 19 0 27
-2 18 -5z"/>
</g>
</svg>
